<?xml version="1.0" encoding="UTF-8" standalone="no"?>
<!-- Created with Inkscape (http://www.inkscape.org/) -->

<svg
   xmlns:dc="http://purl.org/dc/elements/1.1/"
   xmlns:cc="http://creativecommons.org/ns#"
   xmlns:rdf="http://www.w3.org/1999/02/22-rdf-syntax-ns#"
   xmlns:svg="http://www.w3.org/2000/svg"
   xmlns="http://www.w3.org/2000/svg"
   xmlns:sodipodi="http://sodipodi.sourceforge.net/DTD/sodipodi-0.dtd"
   xmlns:inkscape="http://www.inkscape.org/namespaces/inkscape"
   width="225.453"
   height="52.000011"
   viewBox="0 0 59.651107 13.758336"
   version="1.1"
   id="svg8"
   inkscape:version="0.92.0 r15299"
   sodipodi:docname="nornickel.svg">
  <defs
     id="defs2" />
  <sodipodi:namedview
     id="base"
     pagecolor="#ffffff"
     bordercolor="#666666"
     borderopacity="1.0"
     inkscape:pageopacity="0.0"
     inkscape:pageshadow="2"
     inkscape:zoom="3.5891216"
     inkscape:cx="111.7265"
     inkscape:cy="25.000006"
     inkscape:document-units="mm"
     inkscape:current-layer="layer1"
     showgrid="false"
     fit-margin-top="0"
     fit-margin-left="0"
     fit-margin-right="0"
     fit-margin-bottom="0"
     units="px"
     inkscape:window-width="1280"
     inkscape:window-height="744"
     inkscape:window-x="-4"
     inkscape:window-y="-4"
     inkscape:window-maximized="1" />
  <metadata
     id="metadata5">
    <rdf:RDF>
      <cc:Work
         rdf:about="">
        <dc:format>image/svg+xml</dc:format>
        <dc:type
           rdf:resource="http://purl.org/dc/dcmitype/StillImage" />
        <dc:title></dc:title>
      </cc:Work>
    </rdf:RDF>
  </metadata>
  <g
     inkscape:label="Layer 1"
     inkscape:groupmode="layer"
     id="layer1"
     transform="translate(334.96573,-252.05864)">
    <path
       style="display:none;fill:#626261;stroke-width:0.26458332"
       inkscape:connector-curvature="0"
       display="none"
       d="m -308.53386,258.6203 h -1.21708 v -1.64042 h -1.40229 v 4.41854 h 1.42875 v -1.56104 h 1.21708 v 1.56104 h 1.42875 v -4.41854 h -1.42875 v 1.64042 z m 13.17625,0 h -1.21708 v -1.64042 h -1.42875 v 4.41854 h 1.42875 v -1.56104 h 1.21708 v 1.56104 h 1.42875 v -4.41854 h -1.42875 z m 21.66938,-0.34396 h -0.68792 v -1.29646 h -1.42875 v 4.41854 h 2.08995 c 0.92604,0 1.66687,-0.50244 1.66687,-1.40229 v -0.3175 c 0.0267,-0.89958 -0.74057,-1.40229 -1.64015,-1.40229 m -0.15875,2.03729 h -0.52917 v -0.9525 h 0.47625 c 0.39688,0 0.50271,0.29131 0.50271,0.47652 0,0.39661 -0.34396,0.47598 -0.44979,0.47598 m -8.99583,-0.58208 h 1.5875 v -1.05833 h -1.5875 v -0.52917 h 1.74651 v -1.13771 h -3.175 v 4.41854 h 3.28057 v -1.16416 h -1.85208 z m -1.74625,-2.75167 h -1.53459 l -0.7411,1.66688 h -0.34395 v -1.66688 h -1.42849 v 4.41854 h 1.42849 v -1.56104 h 0.34395 l 0.7673,1.56078 h 1.64041 l -1.19062,-2.2225 z m -19.685,-0.0529 h -0.68792 c -0.92604,0 -1.66688,0.66145 -1.66688,1.66687 v 1.24354 c 0,1.03161 0.74084,1.66688 1.66688,1.66688 h 0.68792 c 0.92604,0 1.66687,-0.66146 1.66687,-1.66688 v -1.24354 c 0.0265,-1.08479 -0.74083,-1.66687 -1.66687,-1.66687 m 0.26458,2.98979 c 0,0.29104 -0.23786,0.52916 -0.52917,0.52916 h -0.13229 c -0.29104,0 -0.52917,-0.23812 -0.52917,-0.52916 v -1.42875 c 0,-0.29104 0.23813,-0.52917 0.52917,-0.52917 h 0.13229 c 0.29131,0 0.52917,0.23813 0.52917,0.52917 z m 24.10354,-0.58209 c 0,0.66146 -0.18521,0.7673 -0.4236,0.87313 -0.10557,0.0529 -0.39661,0.0529 -0.39661,0.0529 v 1.16416 h 0.55589 c 1.19063,0 1.64015,-0.68818 1.64015,-2.24896 v -1.00541 h 0.79375 v 3.25437 h 1.42875 v -4.445 h -3.57187 v 2.35479 z m -20.10833,-2.35479 h -2.09021 v 4.41854 h 1.42875 v -1.08479 h 0.68792 c 0.92604,0 1.66687,-0.50271 1.66687,-1.40229 v -0.50271 c -0.0265,-0.92604 -0.76729,-1.42875 -1.69333,-1.42875 m 0.29104,1.79917 c 0,0.15875 -0.0794,0.47625 -0.50271,0.47625 h -0.47625 v -1.16417 h 0.52917 c 0.13229,0 0.4236,0.10584 0.4236,0.44979 v 0.23813 z m 7.75229,0.44979 v -2.2225 h -1.34937 v 4.41854 h 1.24354 l 1.45521,-2.2225 v 2.2225 h 1.34937 v -4.445 h -1.24354 z"
       id="path10" />
    <g
       id="g38"
       transform="translate(0.26458351,-0.26457567)">
      <polygon
         transform="matrix(0.26458333,0,0,0.26458333,-334.96573,252.5878)"
         id="polygon12"
         points="50,16.9 25,0 25,33.1 50,50 "
         style="fill:#00589c" />
      <path
         id="path14"
         d="m -334.96573,259.20238 c 0,3.65125 2.96333,6.61459 6.61458,6.61459 V 252.5878 c -3.65125,0 -6.61458,2.96333 -6.61458,6.61458 m 13.22917,-6.61458 v 13.22917 c 3.65125,0 6.61458,-2.96334 6.61458,-6.61459 0,-3.65125 -2.96333,-6.61458 -6.61458,-6.61458"
         inkscape:connector-curvature="0"
         style="fill:#0080c8;stroke-width:0.26458332" />
      <path
         id="path16"
         d="m -295.31765,259.24842 -1.4097,-2.25584 h -1.24566 v 4.40426 h 1.34249 v -2.21324 l 1.39462,2.21324 h 1.24566 v -4.40452 h -1.32768 v 2.2561 z m -8.95112,-2.3278 h -0.694 c -0.91679,0 -1.66688,0.65325 -1.66688,1.66714 v 1.22925 c 0,1.01865 0.75009,1.66714 1.66688,1.66714 h 0.694 c 0.91678,0 1.6674,-0.65511 1.6674,-1.66714 v -1.22925 c 0,-1.06733 -0.75062,-1.66714 -1.6674,-1.66714 m 0.24421,2.99482 a 0.53181249,0.53181249 0 0 1 -0.53049,0.53048 h -0.12118 a 0.53181249,0.53181249 0 0 1 -0.52996,-0.53048 v -1.42743 c 0,-0.2921 0.23865,-0.53102 0.52996,-0.53102 h 0.12118 c 0.29183,0 0.53049,0.23865 0.53049,0.53102 z m 10.65371,1.4814 h 1.41711 v -4.40452 h -1.41711 z m 15.84907,-1.18904 v -3.21548 h -1.41658 v 4.40425 h 3.09457 v -1.18877 z m -11.6496,-3.28718 h -0.63527 c -0.91651,0 -1.66661,0.65325 -1.66661,1.66714 v 1.22925 c 0,1.01865 0.7501,1.66714 1.66661,1.66714 h 0.63527 c 0.91731,0 1.66714,-0.65511 1.66714,-1.66714 v -0.0561 h -1.42293 v 0.15452 a 0.53207708,0.53207708 0 0 1 -0.53102,0.53048 h -0.0616 a 0.53154791,0.53154791 0 0 1 -0.52996,-0.53048 V 258.488 c 0,-0.2921 0.23813,-0.53102 0.52996,-0.53102 h 0.0616 c 0.2921,0 0.53102,0.23865 0.53102,0.53102 v 0.21431 h 1.42293 v -0.11456 c 0,-1.06733 -0.74983,-1.66714 -1.66714,-1.66714 m -9.20592,1.6891 v -0.21273 c 0,-0.89879 -0.75062,-1.40441 -1.66687,-1.40441 l -2.07645,-2.6e-4 v 4.40425 h 1.397 v -1.30439 h 0.41698 l 0.58791,1.30439 h 1.4687 l -0.82153,-1.6129 c 0.41963,-0.23045 0.69426,-0.6305 0.69426,-1.17395 m -1.37847,-0.0508 c 0,0.16033 -0.0815,0.51832 -0.49107,0.51832 h -0.47652 v -1.0975 h 0.53446 c 0.14314,0 0.43339,0.1651 0.43339,0.50906 v 0.0701 z m -8.69712,0.64717 -1.45468,-2.21351 h -1.24566 v 4.40426 h 1.34276 v -2.23229 l 1.45468,2.23229 h 1.24566 v -4.40452 h -1.34276 z m 27.17958,0.5199 h 1.59703 v -1.04748 h -1.59703 v -0.53711 h 1.74149 v -1.14908 h -3.15833 v 4.40425 h 3.28824 v -1.14961 h -1.8714 z m -1.7563,-2.73367 h -1.533 l -0.74744,1.66555 h -0.34978 v -1.66555 h -1.41711 v 4.40425 h 1.41711 v -1.56448 h 0.34792 l 0.76412,1.56475 h 1.62613 l -1.20094,-2.22171 z"
         inkscape:connector-curvature="0"
         style="fill:#626261;stroke-width:0.26458332" />
    </g>
  </g>
</svg>
